<svg xmlns="http://www.w3.org/2000/svg" viewBox="0 0 82.500 89.500">
  <g transform="translate(-355.250 -89.750)">
    <g id="DISKETTE">
      <g>
        <path style="fill:#75CEFB;" d="M437.683,108.867v59.892c0,4.131-2.743,10.285-10.285,10.285h-61.709c-7.542,0-10.285-6.154-10.285-10.285V99.01c0-0.34,0.043-0.703,0.12-1.114c0.857-4.885,5.071-10.165,10.165-10.165h49.23l7.337,6.111L437.683,108.867z"/>
      </g>
      <g>
        <path style="opacity:0.2;fill:#1D1D1B;" d="M422.256,96.019v17.887c0,10.019-7.945,15.427-15.427,15.427h-27.426c-10.019,0-15.427-7.945-15.427-15.427V90.028c0.54-0.077,1.114-0.12,1.714-0.12h49.23L422.256,96.019z"/>
      </g>
      <g>
        <path style="fill:#FFFFFF;" d="M417.113,91.734v22.172c0,7.542-6.154,10.285-10.285,10.285h-27.426c-7.542,0-10.285-6.154-10.285-10.285V89.908h45.802L417.113,91.734z"/>
      </g>
      <g>
        <rect x="393.115" y="89.908" style="fill:#262626;" width="10.285" height="25.715"/>
      </g>
      <g>
        <rect x="367.403" y="136.19" style="fill:#888888;" width="58.281" height="42.853"/>
        <rect x="369.117" y="137.904" style="fill:#FFFFFF;" width="54.852" height="41.139"/>
      </g>
      <g style="opacity:0.15;">
        <path style="fill:#1D1D1B;" d="M437.683,108.867v59.892c0,4.131-2.743,10.285-10.285,10.285h-61.709c-3.257,0-7.748-1.697-9.513-6.077c1.483,0.651,3.034,0.934,4.371,0.934h61.709c7.542,0,10.285-6.154,10.285-10.285v-59.035L437.683,108.867z"/>
      </g>
      <g>
        <rect x="379.396" y="147.325" style="fill:#888888;" width="34.287" height="6.857"/>
      </g>
      <g>
        <rect x="379.396" y="161.047" style="fill:#888888;" width="34.287" height="6.857"/>
      </g>
    </g>
  </g>
</svg>
