<svg clip-rule="evenodd" fill-rule="evenodd" height="1.707in" image-rendering="optimizeQuality" shape-rendering="geometricPrecision" text-rendering="geometricPrecision" viewBox="0 0 1707 1707" width="1.707in" xmlns="http://www.w3.org/2000/svg"><g id="Layer_x0020_1"><g id="_684000720"><path d="m916 1707h-126c-44 0-80-36-80-81 0-19-2-39 1-54 8-46 286-14 286 1v53c0 45-37 81-81 81z" fill="#56717d"/><path d="m1068 1375h-429c-11 0-20-9-20-20v-150c-165-87-266-256-266-443 0-276 224-500 500-500s501 224 501 500c0 187-102 356-266 443v150c0 11-9 20-20 20z" fill="#f7cc3f"/><g fill="#f9a633"><path d="m790 1375h-40v-402l-69-119c-13-23 21-43 34-20 11 18 75 122 75 134z"/><path d="m957 1375h-40v-407c0-12 64-116 74-134 13-23 48-3 35 19l-69 120z"/></g><path d="m1008 1593h-309c-44 0-80-36-80-80v-158-20h469v20 158c0 44-36 80-80 80z" fill="#607d8b"/><path d="m619 1484v-40h469v40z" fill="#56717d"/><path d="m853 207c-20 0-36-16-36-36v-135c0-48 73-48 73 0v135c0 20-17 36-37 36zm310 83c-28 0-45-30-31-54l67-117c7-12 18-19 31-19 28 1 47 30 32 55l-67 117c-7 11-19 18-32 18zm227 227c-37 0-51-49-18-68l117-67c11-7 24-7 36-1 23 15 25 49 0 64-23 13-116 72-135 72zm218 310h-135c-48 0-48-73 0-73h135c48 0 48 73 0 73zm-1064-537c-13 0-25-7-32-18l-67-117c-7-11-7-25-1-36 15-24 49-25 64 0l67 117c14 24-4 54-31 54zm-227 227c-19 0-112-59-135-72-12-7-19-18-19-32 1-27 30-46 55-31l117 67c32 19 19 68-18 68zm-83 310h-135c-48 0-48-73 0-73h135c48 0 48 73 0 73z" fill="#f9a633"/></g></g></svg>